<mxfile host="app.diagrams.net" modified="2023-03-17T08:14:58.810Z" agent="5.0 (Windows NT 10.0; Win64; x64) AppleWebKit/537.36 (KHTML, like Gecko) Chrome/110.0.0.0 Safari/537.36 Edg/110.0.1587.41" etag="yMDtvX7J6YqBTQmkeTpv" version="20.8.20" type="github" pages="4">
  <diagram name="第 1 页" id="4a7RB333jaPQD_4v8tEf">
    <mxGraphModel dx="2534" dy="985" grid="1" gridSize="10" guides="1" tooltips="1" connect="1" arrows="1" fold="1" page="0" pageScale="1" pageWidth="827" pageHeight="1169" math="0" shadow="0">
      <root>
        <mxCell id="0" />
        <mxCell id="1" parent="0" />
        <mxCell id="4OD_v_N6fBRMkoQgeyRL-4" value="" style="edgeStyle=orthogonalEdgeStyle;rounded=0;orthogonalLoop=1;jettySize=auto;html=1;fontSize=20;" edge="1" parent="1" source="4OD_v_N6fBRMkoQgeyRL-1" target="4OD_v_N6fBRMkoQgeyRL-3">
          <mxGeometry relative="1" as="geometry" />
        </mxCell>
        <mxCell id="4OD_v_N6fBRMkoQgeyRL-1" value="&lt;font style=&quot;font-size: 20px;&quot;&gt;开始&lt;/font&gt;" style="rounded=0;whiteSpace=wrap;html=1;" vertex="1" parent="1">
          <mxGeometry x="170" y="60" width="120" height="60" as="geometry" />
        </mxCell>
        <mxCell id="4OD_v_N6fBRMkoQgeyRL-6" value="" style="edgeStyle=orthogonalEdgeStyle;rounded=0;orthogonalLoop=1;jettySize=auto;html=1;fontSize=20;" edge="1" parent="1" source="4OD_v_N6fBRMkoQgeyRL-3" target="4OD_v_N6fBRMkoQgeyRL-5">
          <mxGeometry relative="1" as="geometry" />
        </mxCell>
        <mxCell id="4OD_v_N6fBRMkoQgeyRL-3" value="初始化" style="rounded=0;whiteSpace=wrap;html=1;fontSize=20;" vertex="1" parent="1">
          <mxGeometry x="170" y="160" width="120" height="60" as="geometry" />
        </mxCell>
        <mxCell id="4OD_v_N6fBRMkoQgeyRL-8" value="" style="edgeStyle=orthogonalEdgeStyle;rounded=0;orthogonalLoop=1;jettySize=auto;html=1;fontSize=20;" edge="1" parent="1" source="4OD_v_N6fBRMkoQgeyRL-5" target="4OD_v_N6fBRMkoQgeyRL-7">
          <mxGeometry relative="1" as="geometry" />
        </mxCell>
        <mxCell id="4OD_v_N6fBRMkoQgeyRL-56" style="edgeStyle=orthogonalEdgeStyle;rounded=0;orthogonalLoop=1;jettySize=auto;html=1;fontSize=20;" edge="1" parent="1" source="4OD_v_N6fBRMkoQgeyRL-5" target="4OD_v_N6fBRMkoQgeyRL-57">
          <mxGeometry relative="1" as="geometry">
            <mxPoint x="480" y="300" as="targetPoint" />
          </mxGeometry>
        </mxCell>
        <mxCell id="4OD_v_N6fBRMkoQgeyRL-5" value="是否读完整个文件" style="rhombus;whiteSpace=wrap;html=1;fontSize=20;rounded=0;" vertex="1" parent="1">
          <mxGeometry x="130" y="260" width="200" height="80" as="geometry" />
        </mxCell>
        <mxCell id="4OD_v_N6fBRMkoQgeyRL-12" style="edgeStyle=orthogonalEdgeStyle;rounded=0;orthogonalLoop=1;jettySize=auto;html=1;exitX=0.5;exitY=1;exitDx=0;exitDy=0;fontSize=20;" edge="1" parent="1" source="4OD_v_N6fBRMkoQgeyRL-7" target="4OD_v_N6fBRMkoQgeyRL-11">
          <mxGeometry relative="1" as="geometry" />
        </mxCell>
        <mxCell id="4OD_v_N6fBRMkoQgeyRL-7" value="当前是否在注释" style="rhombus;whiteSpace=wrap;html=1;fontSize=20;rounded=0;" vertex="1" parent="1">
          <mxGeometry x="115" y="410" width="230" height="80" as="geometry" />
        </mxCell>
        <mxCell id="4OD_v_N6fBRMkoQgeyRL-9" value="NO" style="text;html=1;align=center;verticalAlign=middle;resizable=0;points=[];autosize=1;strokeColor=none;fillColor=none;fontSize=20;" vertex="1" parent="1">
          <mxGeometry x="220" y="350" width="50" height="40" as="geometry" />
        </mxCell>
        <mxCell id="4OD_v_N6fBRMkoQgeyRL-13" style="edgeStyle=orthogonalEdgeStyle;rounded=0;orthogonalLoop=1;jettySize=auto;html=1;exitX=0;exitY=0.5;exitDx=0;exitDy=0;fontSize=20;" edge="1" parent="1" source="4OD_v_N6fBRMkoQgeyRL-11">
          <mxGeometry relative="1" as="geometry">
            <mxPoint x="-40" y="680" as="targetPoint" />
          </mxGeometry>
        </mxCell>
        <mxCell id="4OD_v_N6fBRMkoQgeyRL-16" style="edgeStyle=orthogonalEdgeStyle;rounded=0;orthogonalLoop=1;jettySize=auto;html=1;exitX=0.5;exitY=1;exitDx=0;exitDy=0;fontSize=20;" edge="1" parent="1" source="4OD_v_N6fBRMkoQgeyRL-11" target="4OD_v_N6fBRMkoQgeyRL-21">
          <mxGeometry relative="1" as="geometry">
            <mxPoint x="230" y="680" as="targetPoint" />
          </mxGeometry>
        </mxCell>
        <mxCell id="4OD_v_N6fBRMkoQgeyRL-19" style="edgeStyle=orthogonalEdgeStyle;rounded=0;orthogonalLoop=1;jettySize=auto;html=1;exitX=1;exitY=0.5;exitDx=0;exitDy=0;fontSize=20;" edge="1" parent="1" source="4OD_v_N6fBRMkoQgeyRL-11" target="4OD_v_N6fBRMkoQgeyRL-22">
          <mxGeometry relative="1" as="geometry">
            <mxPoint x="510" y="680" as="targetPoint" />
            <Array as="points">
              <mxPoint x="570" y="570" />
            </Array>
          </mxGeometry>
        </mxCell>
        <mxCell id="4OD_v_N6fBRMkoQgeyRL-11" value="判断开始字符&lt;br&gt;为哪种类型" style="rhombus;whiteSpace=wrap;html=1;fontSize=20;rounded=0;" vertex="1" parent="1">
          <mxGeometry x="120" y="530" width="220" height="80" as="geometry" />
        </mxCell>
        <mxCell id="4OD_v_N6fBRMkoQgeyRL-15" value="符号" style="text;html=1;align=center;verticalAlign=middle;resizable=0;points=[];autosize=1;strokeColor=none;fillColor=none;fontSize=20;" vertex="1" parent="1">
          <mxGeometry x="-10" y="540" width="60" height="40" as="geometry" />
        </mxCell>
        <mxCell id="4OD_v_N6fBRMkoQgeyRL-17" value="数字" style="text;html=1;align=center;verticalAlign=middle;resizable=0;points=[];autosize=1;strokeColor=none;fillColor=none;fontSize=20;" vertex="1" parent="1">
          <mxGeometry x="380" y="540" width="60" height="40" as="geometry" />
        </mxCell>
        <mxCell id="4OD_v_N6fBRMkoQgeyRL-18" value="字母" style="text;html=1;align=center;verticalAlign=middle;resizable=0;points=[];autosize=1;strokeColor=none;fillColor=none;fontSize=20;" vertex="1" parent="1">
          <mxGeometry x="230" y="630" width="60" height="40" as="geometry" />
        </mxCell>
        <mxCell id="4OD_v_N6fBRMkoQgeyRL-28" style="edgeStyle=orthogonalEdgeStyle;rounded=0;orthogonalLoop=1;jettySize=auto;html=1;entryX=0.5;entryY=0;entryDx=0;entryDy=0;fontSize=20;" edge="1" parent="1" source="4OD_v_N6fBRMkoQgeyRL-20" target="4OD_v_N6fBRMkoQgeyRL-23">
          <mxGeometry relative="1" as="geometry" />
        </mxCell>
        <mxCell id="4OD_v_N6fBRMkoQgeyRL-20" value="获取整个符号串" style="rounded=0;whiteSpace=wrap;html=1;fontSize=20;" vertex="1" parent="1">
          <mxGeometry x="-100" y="680" width="120" height="60" as="geometry" />
        </mxCell>
        <mxCell id="4OD_v_N6fBRMkoQgeyRL-33" style="edgeStyle=orthogonalEdgeStyle;rounded=0;orthogonalLoop=1;jettySize=auto;html=1;exitX=0.5;exitY=1;exitDx=0;exitDy=0;fontSize=20;" edge="1" parent="1" source="4OD_v_N6fBRMkoQgeyRL-21" target="4OD_v_N6fBRMkoQgeyRL-36">
          <mxGeometry relative="1" as="geometry">
            <mxPoint x="230" y="840" as="targetPoint" />
          </mxGeometry>
        </mxCell>
        <mxCell id="4OD_v_N6fBRMkoQgeyRL-21" value="不断读入，直至遇到符号/运算符" style="rounded=0;whiteSpace=wrap;html=1;fontSize=20;" vertex="1" parent="1">
          <mxGeometry x="170" y="680" width="120" height="60" as="geometry" />
        </mxCell>
        <mxCell id="4OD_v_N6fBRMkoQgeyRL-65" value="" style="edgeStyle=orthogonalEdgeStyle;rounded=0;orthogonalLoop=1;jettySize=auto;html=1;fontSize=20;" edge="1" parent="1" source="4OD_v_N6fBRMkoQgeyRL-22" target="4OD_v_N6fBRMkoQgeyRL-64">
          <mxGeometry relative="1" as="geometry" />
        </mxCell>
        <mxCell id="4OD_v_N6fBRMkoQgeyRL-22" value="对数字处理" style="rounded=0;whiteSpace=wrap;html=1;fontSize=20;" vertex="1" parent="1">
          <mxGeometry x="510" y="680" width="120" height="60" as="geometry" />
        </mxCell>
        <mxCell id="4OD_v_N6fBRMkoQgeyRL-24" style="edgeStyle=orthogonalEdgeStyle;rounded=0;orthogonalLoop=1;jettySize=auto;html=1;fontSize=20;entryX=0.5;entryY=1;entryDx=0;entryDy=0;" edge="1" parent="1" source="4OD_v_N6fBRMkoQgeyRL-23">
          <mxGeometry relative="1" as="geometry">
            <mxPoint x="-330" y="790" as="targetPoint" />
            <Array as="points">
              <mxPoint x="-330" y="830" />
            </Array>
          </mxGeometry>
        </mxCell>
        <mxCell id="4OD_v_N6fBRMkoQgeyRL-29" style="edgeStyle=orthogonalEdgeStyle;rounded=0;orthogonalLoop=1;jettySize=auto;html=1;exitX=0.5;exitY=1;exitDx=0;exitDy=0;fontSize=20;" edge="1" parent="1" source="4OD_v_N6fBRMkoQgeyRL-23" target="4OD_v_N6fBRMkoQgeyRL-30">
          <mxGeometry relative="1" as="geometry">
            <mxPoint x="-40" y="910" as="targetPoint" />
          </mxGeometry>
        </mxCell>
        <mxCell id="4OD_v_N6fBRMkoQgeyRL-23" value="是否在符号表内" style="rhombus;whiteSpace=wrap;html=1;fontSize=20;" vertex="1" parent="1">
          <mxGeometry x="-130" y="790" width="180" height="80" as="geometry" />
        </mxCell>
        <mxCell id="4OD_v_N6fBRMkoQgeyRL-25" value="NO" style="text;html=1;align=center;verticalAlign=middle;resizable=0;points=[];autosize=1;strokeColor=none;fillColor=none;fontSize=20;" vertex="1" parent="1">
          <mxGeometry x="-245" y="800" width="50" height="40" as="geometry" />
        </mxCell>
        <mxCell id="4OD_v_N6fBRMkoQgeyRL-61" style="edgeStyle=orthogonalEdgeStyle;rounded=0;orthogonalLoop=1;jettySize=auto;html=1;exitX=0.5;exitY=1;exitDx=0;exitDy=0;fontSize=20;entryX=0;entryY=0.5;entryDx=0;entryDy=0;" edge="1" parent="1" source="4OD_v_N6fBRMkoQgeyRL-30" target="4OD_v_N6fBRMkoQgeyRL-5">
          <mxGeometry relative="1" as="geometry">
            <mxPoint x="-360" y="360" as="targetPoint" />
            <Array as="points">
              <mxPoint x="-40" y="1010" />
              <mxPoint x="-460" y="1010" />
              <mxPoint x="-460" y="300" />
            </Array>
          </mxGeometry>
        </mxCell>
        <mxCell id="4OD_v_N6fBRMkoQgeyRL-30" value="修改p到ppre，out并更新token" style="rounded=0;whiteSpace=wrap;html=1;fontSize=20;" vertex="1" parent="1">
          <mxGeometry x="-100" y="920" width="120" height="60" as="geometry" />
        </mxCell>
        <mxCell id="4OD_v_N6fBRMkoQgeyRL-31" value="YES" style="text;html=1;align=center;verticalAlign=middle;resizable=0;points=[];autosize=1;strokeColor=none;fillColor=none;fontSize=20;" vertex="1" parent="1">
          <mxGeometry x="-50" y="870" width="60" height="40" as="geometry" />
        </mxCell>
        <mxCell id="4OD_v_N6fBRMkoQgeyRL-32" value="No" style="text;html=1;align=center;verticalAlign=middle;resizable=0;points=[];autosize=1;strokeColor=none;fillColor=none;fontSize=20;" vertex="1" parent="1">
          <mxGeometry x="225" y="490" width="50" height="40" as="geometry" />
        </mxCell>
        <mxCell id="4OD_v_N6fBRMkoQgeyRL-38" value="" style="edgeStyle=orthogonalEdgeStyle;rounded=0;orthogonalLoop=1;jettySize=auto;html=1;fontSize=20;" edge="1" parent="1" source="4OD_v_N6fBRMkoQgeyRL-36" target="4OD_v_N6fBRMkoQgeyRL-37">
          <mxGeometry relative="1" as="geometry" />
        </mxCell>
        <mxCell id="4OD_v_N6fBRMkoQgeyRL-40" style="edgeStyle=orthogonalEdgeStyle;rounded=0;orthogonalLoop=1;jettySize=auto;html=1;exitX=1;exitY=0.5;exitDx=0;exitDy=0;fontSize=20;" edge="1" parent="1" source="4OD_v_N6fBRMkoQgeyRL-36" target="4OD_v_N6fBRMkoQgeyRL-43">
          <mxGeometry relative="1" as="geometry">
            <mxPoint x="380" y="920" as="targetPoint" />
          </mxGeometry>
        </mxCell>
        <mxCell id="4OD_v_N6fBRMkoQgeyRL-36" value="判断其是否是&lt;br&gt;关键词" style="rhombus;whiteSpace=wrap;html=1;fontSize=20;" vertex="1" parent="1">
          <mxGeometry x="145" y="790" width="170" height="80" as="geometry" />
        </mxCell>
        <mxCell id="4OD_v_N6fBRMkoQgeyRL-62" style="edgeStyle=orthogonalEdgeStyle;rounded=0;orthogonalLoop=1;jettySize=auto;html=1;exitX=0.5;exitY=1;exitDx=0;exitDy=0;fontSize=20;" edge="1" parent="1" source="4OD_v_N6fBRMkoQgeyRL-37">
          <mxGeometry relative="1" as="geometry">
            <mxPoint x="-80" y="1010" as="targetPoint" />
            <Array as="points">
              <mxPoint x="230" y="1010" />
            </Array>
          </mxGeometry>
        </mxCell>
        <mxCell id="4OD_v_N6fBRMkoQgeyRL-37" value="调用关键词out程序" style="whiteSpace=wrap;html=1;fontSize=20;" vertex="1" parent="1">
          <mxGeometry x="170" y="920" width="120" height="60" as="geometry" />
        </mxCell>
        <mxCell id="4OD_v_N6fBRMkoQgeyRL-39" value="YES" style="text;html=1;align=center;verticalAlign=middle;resizable=0;points=[];autosize=1;strokeColor=none;fillColor=none;fontSize=20;" vertex="1" parent="1">
          <mxGeometry x="225" y="870" width="60" height="40" as="geometry" />
        </mxCell>
        <mxCell id="4OD_v_N6fBRMkoQgeyRL-42" value="NO" style="text;html=1;align=center;verticalAlign=middle;resizable=0;points=[];autosize=1;strokeColor=none;fillColor=none;fontSize=20;" vertex="1" parent="1">
          <mxGeometry x="315" y="800" width="50" height="40" as="geometry" />
        </mxCell>
        <mxCell id="4OD_v_N6fBRMkoQgeyRL-63" style="edgeStyle=orthogonalEdgeStyle;rounded=0;orthogonalLoop=1;jettySize=auto;html=1;exitX=0.5;exitY=1;exitDx=0;exitDy=0;fontSize=20;" edge="1" parent="1" source="4OD_v_N6fBRMkoQgeyRL-43">
          <mxGeometry relative="1" as="geometry">
            <mxPoint x="-70" y="1010" as="targetPoint" />
            <Array as="points">
              <mxPoint x="380" y="1010" />
            </Array>
          </mxGeometry>
        </mxCell>
        <mxCell id="4OD_v_N6fBRMkoQgeyRL-43" value="调用标识符out程序" style="rounded=0;whiteSpace=wrap;html=1;fontSize=20;" vertex="1" parent="1">
          <mxGeometry x="320" y="920" width="120" height="60" as="geometry" />
        </mxCell>
        <mxCell id="4OD_v_N6fBRMkoQgeyRL-49" style="edgeStyle=orthogonalEdgeStyle;rounded=0;orthogonalLoop=1;jettySize=auto;html=1;exitX=1;exitY=0.5;exitDx=0;exitDy=0;fontSize=20;" edge="1" parent="1" source="4OD_v_N6fBRMkoQgeyRL-44">
          <mxGeometry relative="1" as="geometry">
            <mxPoint x="-40" y="770" as="targetPoint" />
          </mxGeometry>
        </mxCell>
        <mxCell id="4OD_v_N6fBRMkoQgeyRL-44" value="p--,符号串长度--" style="rounded=0;whiteSpace=wrap;html=1;fontSize=20;" vertex="1" parent="1">
          <mxGeometry x="-220" y="720" width="120" height="60" as="geometry" />
        </mxCell>
        <mxCell id="4OD_v_N6fBRMkoQgeyRL-47" style="edgeStyle=orthogonalEdgeStyle;rounded=0;orthogonalLoop=1;jettySize=auto;html=1;exitX=1;exitY=0.5;exitDx=0;exitDy=0;entryX=0;entryY=0.5;entryDx=0;entryDy=0;fontSize=20;" edge="1" parent="1" source="4OD_v_N6fBRMkoQgeyRL-45" target="4OD_v_N6fBRMkoQgeyRL-44">
          <mxGeometry relative="1" as="geometry" />
        </mxCell>
        <mxCell id="4OD_v_N6fBRMkoQgeyRL-50" style="edgeStyle=orthogonalEdgeStyle;rounded=0;orthogonalLoop=1;jettySize=auto;html=1;exitX=0.5;exitY=0;exitDx=0;exitDy=0;fontSize=20;" edge="1" parent="1" source="4OD_v_N6fBRMkoQgeyRL-45" target="4OD_v_N6fBRMkoQgeyRL-54">
          <mxGeometry relative="1" as="geometry">
            <mxPoint x="-330" y="650" as="targetPoint" />
          </mxGeometry>
        </mxCell>
        <mxCell id="4OD_v_N6fBRMkoQgeyRL-45" value="是否为注释" style="rhombus;whiteSpace=wrap;html=1;fontSize=20;" vertex="1" parent="1">
          <mxGeometry x="-415" y="710" width="170" height="80" as="geometry" />
        </mxCell>
        <mxCell id="4OD_v_N6fBRMkoQgeyRL-48" value="NO" style="text;html=1;align=center;verticalAlign=middle;resizable=0;points=[];autosize=1;strokeColor=none;fillColor=none;fontSize=20;" vertex="1" parent="1">
          <mxGeometry x="-265" y="720" width="50" height="40" as="geometry" />
        </mxCell>
        <mxCell id="4OD_v_N6fBRMkoQgeyRL-55" style="edgeStyle=orthogonalEdgeStyle;rounded=0;orthogonalLoop=1;jettySize=auto;html=1;exitX=0.5;exitY=0;exitDx=0;exitDy=0;fontSize=20;" edge="1" parent="1" source="4OD_v_N6fBRMkoQgeyRL-54">
          <mxGeometry relative="1" as="geometry">
            <mxPoint x="230" y="370" as="targetPoint" />
            <Array as="points">
              <mxPoint x="-330" y="370" />
              <mxPoint x="226" y="370" />
            </Array>
          </mxGeometry>
        </mxCell>
        <mxCell id="4OD_v_N6fBRMkoQgeyRL-54" value="判断注释类型，修改对应状态" style="rounded=0;whiteSpace=wrap;html=1;fontSize=20;" vertex="1" parent="1">
          <mxGeometry x="-390" y="610" width="120" height="60" as="geometry" />
        </mxCell>
        <mxCell id="4OD_v_N6fBRMkoQgeyRL-59" style="edgeStyle=orthogonalEdgeStyle;rounded=0;orthogonalLoop=1;jettySize=auto;html=1;exitX=1;exitY=0.5;exitDx=0;exitDy=0;fontSize=20;" edge="1" parent="1" source="4OD_v_N6fBRMkoQgeyRL-57" target="4OD_v_N6fBRMkoQgeyRL-60">
          <mxGeometry relative="1" as="geometry">
            <mxPoint x="620" y="300" as="targetPoint" />
          </mxGeometry>
        </mxCell>
        <mxCell id="4OD_v_N6fBRMkoQgeyRL-57" value="输出信息" style="rounded=0;whiteSpace=wrap;html=1;fontSize=20;" vertex="1" parent="1">
          <mxGeometry x="390" y="270" width="120" height="60" as="geometry" />
        </mxCell>
        <mxCell id="4OD_v_N6fBRMkoQgeyRL-58" value="YES" style="text;html=1;align=center;verticalAlign=middle;resizable=0;points=[];autosize=1;strokeColor=none;fillColor=none;fontSize=20;" vertex="1" parent="1">
          <mxGeometry x="330" y="270" width="60" height="40" as="geometry" />
        </mxCell>
        <mxCell id="4OD_v_N6fBRMkoQgeyRL-60" value="END" style="rounded=0;whiteSpace=wrap;html=1;fontSize=20;" vertex="1" parent="1">
          <mxGeometry x="560" y="270" width="120" height="60" as="geometry" />
        </mxCell>
        <mxCell id="4OD_v_N6fBRMkoQgeyRL-67" value="" style="edgeStyle=orthogonalEdgeStyle;rounded=0;orthogonalLoop=1;jettySize=auto;html=1;fontSize=20;" edge="1" parent="1" source="4OD_v_N6fBRMkoQgeyRL-64" target="4OD_v_N6fBRMkoQgeyRL-66">
          <mxGeometry relative="1" as="geometry" />
        </mxCell>
        <mxCell id="4OD_v_N6fBRMkoQgeyRL-64" value="对E|e处理" style="whiteSpace=wrap;html=1;fontSize=20;rounded=0;" vertex="1" parent="1">
          <mxGeometry x="510" y="780" width="120" height="60" as="geometry" />
        </mxCell>
        <mxCell id="4OD_v_N6fBRMkoQgeyRL-70" value="" style="edgeStyle=orthogonalEdgeStyle;rounded=0;orthogonalLoop=1;jettySize=auto;html=1;fontSize=20;" edge="1" parent="1" source="4OD_v_N6fBRMkoQgeyRL-66" target="4OD_v_N6fBRMkoQgeyRL-69">
          <mxGeometry relative="1" as="geometry" />
        </mxCell>
        <mxCell id="4OD_v_N6fBRMkoQgeyRL-66" value="对小数点处理" style="whiteSpace=wrap;html=1;fontSize=20;rounded=0;" vertex="1" parent="1">
          <mxGeometry x="510" y="870" width="120" height="60" as="geometry" />
        </mxCell>
        <mxCell id="4OD_v_N6fBRMkoQgeyRL-71" style="edgeStyle=orthogonalEdgeStyle;rounded=0;orthogonalLoop=1;jettySize=auto;html=1;exitX=0;exitY=0.5;exitDx=0;exitDy=0;fontSize=20;" edge="1" parent="1" source="4OD_v_N6fBRMkoQgeyRL-69">
          <mxGeometry relative="1" as="geometry">
            <mxPoint x="380" y="1010" as="targetPoint" />
          </mxGeometry>
        </mxCell>
        <mxCell id="4OD_v_N6fBRMkoQgeyRL-69" value="调用out程序" style="whiteSpace=wrap;html=1;fontSize=20;rounded=0;" vertex="1" parent="1">
          <mxGeometry x="510" y="980" width="120" height="60" as="geometry" />
        </mxCell>
      </root>
    </mxGraphModel>
  </diagram>
  <diagram id="_T-ZIakZtSSZw-PJujfk" name="第 2 页">
    <mxGraphModel dx="1787" dy="788" grid="0" gridSize="10" guides="1" tooltips="1" connect="1" arrows="1" fold="1" page="0" pageScale="1" pageWidth="827" pageHeight="1169" math="0" shadow="0">
      <root>
        <mxCell id="0" />
        <mxCell id="1" parent="0" />
        <mxCell id="xHnDGvnCjpXZ_uD_gFxb-6" style="edgeStyle=orthogonalEdgeStyle;rounded=0;orthogonalLoop=1;jettySize=auto;html=1;exitX=1;exitY=0.5;exitDx=0;exitDy=0;fontSize=20;entryX=0;entryY=0.5;entryDx=0;entryDy=0;" edge="1" parent="1" source="xHnDGvnCjpXZ_uD_gFxb-1" target="xHnDGvnCjpXZ_uD_gFxb-3">
          <mxGeometry relative="1" as="geometry">
            <mxPoint x="240" y="50" as="targetPoint" />
          </mxGeometry>
        </mxCell>
        <mxCell id="xHnDGvnCjpXZ_uD_gFxb-1" value="1" style="ellipse;whiteSpace=wrap;html=1;aspect=fixed;fontSize=20;" vertex="1" parent="1">
          <mxGeometry x="60" y="10" width="80" height="80" as="geometry" />
        </mxCell>
        <mxCell id="xHnDGvnCjpXZ_uD_gFxb-4" style="edgeStyle=orthogonalEdgeStyle;rounded=0;orthogonalLoop=1;jettySize=auto;html=1;entryX=0;entryY=0.5;entryDx=0;entryDy=0;fontSize=20;" edge="1" parent="1" source="xHnDGvnCjpXZ_uD_gFxb-2" target="xHnDGvnCjpXZ_uD_gFxb-1">
          <mxGeometry relative="1" as="geometry" />
        </mxCell>
        <mxCell id="xHnDGvnCjpXZ_uD_gFxb-2" value="1" style="ellipse;whiteSpace=wrap;html=1;aspect=fixed;fontSize=20;" vertex="1" parent="1">
          <mxGeometry x="-130" y="10" width="80" height="80" as="geometry" />
        </mxCell>
        <mxCell id="xHnDGvnCjpXZ_uD_gFxb-3" value="3" style="ellipse;whiteSpace=wrap;html=1;aspect=fixed;fontSize=20;" vertex="1" parent="1">
          <mxGeometry x="250" y="10" width="80" height="80" as="geometry" />
        </mxCell>
        <mxCell id="xHnDGvnCjpXZ_uD_gFxb-5" value="/*" style="text;html=1;align=center;verticalAlign=middle;resizable=0;points=[];autosize=1;strokeColor=none;fillColor=none;fontSize=20;" vertex="1" parent="1">
          <mxGeometry x="-20" y="20" width="40" height="40" as="geometry" />
        </mxCell>
        <mxCell id="xHnDGvnCjpXZ_uD_gFxb-7" value="*/" style="text;html=1;align=center;verticalAlign=middle;resizable=0;points=[];autosize=1;strokeColor=none;fillColor=none;fontSize=20;" vertex="1" parent="1">
          <mxGeometry x="170" y="20" width="40" height="40" as="geometry" />
        </mxCell>
        <mxCell id="xHnDGvnCjpXZ_uD_gFxb-10" value="" style="curved=1;endArrow=classic;html=1;rounded=0;fontSize=20;entryX=0.5;entryY=1;entryDx=0;entryDy=0;exitX=0.625;exitY=1;exitDx=0;exitDy=0;exitPerimeter=0;" edge="1" parent="1" source="xHnDGvnCjpXZ_uD_gFxb-2" target="xHnDGvnCjpXZ_uD_gFxb-3">
          <mxGeometry width="50" height="50" relative="1" as="geometry">
            <mxPoint x="180" y="230" as="sourcePoint" />
            <mxPoint x="230" y="180" as="targetPoint" />
            <Array as="points">
              <mxPoint x="50" y="180" />
              <mxPoint x="190" y="180" />
              <mxPoint x="200" y="170" />
              <mxPoint x="210" y="160" />
              <mxPoint x="230" y="150" />
            </Array>
          </mxGeometry>
        </mxCell>
        <mxCell id="xHnDGvnCjpXZ_uD_gFxb-11" value="//" style="text;html=1;align=center;verticalAlign=middle;resizable=0;points=[];autosize=1;strokeColor=none;fillColor=none;fontSize=20;" vertex="1" parent="1">
          <mxGeometry x="70" y="140" width="30" height="40" as="geometry" />
        </mxCell>
        <mxCell id="xHnDGvnCjpXZ_uD_gFxb-12" value="3" style="ellipse;whiteSpace=wrap;html=1;aspect=fixed;fontSize=20;" vertex="1" parent="1">
          <mxGeometry x="260" y="20" width="60" height="60" as="geometry" />
        </mxCell>
      </root>
    </mxGraphModel>
  </diagram>
  <diagram id="vdJcs5XbRQ_yjpCJweeP" name="第 3 页">
    <mxGraphModel dx="1787" dy="1188" grid="0" gridSize="10" guides="1" tooltips="1" connect="1" arrows="1" fold="1" page="0" pageScale="1" pageWidth="827" pageHeight="1169" math="0" shadow="0">
      <root>
        <mxCell id="0" />
        <mxCell id="1" parent="0" />
        <mxCell id="Xo1ElwksXy6OoxNjQt4L-2" style="edgeStyle=orthogonalEdgeStyle;rounded=0;orthogonalLoop=1;jettySize=auto;html=1;exitX=1;exitY=0.5;exitDx=0;exitDy=0;fontSize=20;" edge="1" parent="1" source="Xo1ElwksXy6OoxNjQt4L-1">
          <mxGeometry relative="1" as="geometry">
            <mxPoint x="-80" y="-20" as="targetPoint" />
          </mxGeometry>
        </mxCell>
        <mxCell id="Xo1ElwksXy6OoxNjQt4L-1" value="1" style="ellipse;whiteSpace=wrap;html=1;aspect=fixed;fontSize=20;" vertex="1" parent="1">
          <mxGeometry x="-260" y="-60" width="80" height="80" as="geometry" />
        </mxCell>
        <mxCell id="Xo1ElwksXy6OoxNjQt4L-3" value="d" style="text;html=1;align=center;verticalAlign=middle;resizable=0;points=[];autosize=1;strokeColor=none;fillColor=none;fontSize=20;" vertex="1" parent="1">
          <mxGeometry x="-155" y="-50" width="30" height="40" as="geometry" />
        </mxCell>
        <mxCell id="Xo1ElwksXy6OoxNjQt4L-13" style="edgeStyle=orthogonalEdgeStyle;rounded=0;orthogonalLoop=1;jettySize=auto;html=1;exitX=1;exitY=0.5;exitDx=0;exitDy=0;entryX=0;entryY=0.5;entryDx=0;entryDy=0;fontSize=20;" edge="1" parent="1" source="Xo1ElwksXy6OoxNjQt4L-4" target="Xo1ElwksXy6OoxNjQt4L-7">
          <mxGeometry relative="1" as="geometry" />
        </mxCell>
        <mxCell id="Xo1ElwksXy6OoxNjQt4L-17" style="edgeStyle=orthogonalEdgeStyle;rounded=0;orthogonalLoop=1;jettySize=auto;html=1;exitX=0.5;exitY=1;exitDx=0;exitDy=0;entryX=0.5;entryY=0;entryDx=0;entryDy=0;fontSize=20;" edge="1" parent="1" source="Xo1ElwksXy6OoxNjQt4L-4" target="Xo1ElwksXy6OoxNjQt4L-5">
          <mxGeometry relative="1" as="geometry" />
        </mxCell>
        <mxCell id="Xo1ElwksXy6OoxNjQt4L-4" value="2" style="ellipse;whiteSpace=wrap;html=1;aspect=fixed;fontSize=20;" vertex="1" parent="1">
          <mxGeometry x="-80" y="-60" width="80" height="80" as="geometry" />
        </mxCell>
        <mxCell id="Xo1ElwksXy6OoxNjQt4L-22" style="edgeStyle=orthogonalEdgeStyle;rounded=0;orthogonalLoop=1;jettySize=auto;html=1;exitX=1;exitY=0.5;exitDx=0;exitDy=0;entryX=0;entryY=0.5;entryDx=0;entryDy=0;fontSize=20;" edge="1" parent="1" source="Xo1ElwksXy6OoxNjQt4L-5" target="Xo1ElwksXy6OoxNjQt4L-6">
          <mxGeometry relative="1" as="geometry" />
        </mxCell>
        <mxCell id="Xo1ElwksXy6OoxNjQt4L-5" value="4" style="ellipse;whiteSpace=wrap;html=1;aspect=fixed;fontSize=20;" vertex="1" parent="1">
          <mxGeometry x="-80" y="120" width="80" height="80" as="geometry" />
        </mxCell>
        <mxCell id="Xo1ElwksXy6OoxNjQt4L-6" value="" style="ellipse;whiteSpace=wrap;html=1;aspect=fixed;fontSize=20;" vertex="1" parent="1">
          <mxGeometry x="170" y="120" width="80" height="80" as="geometry" />
        </mxCell>
        <mxCell id="Xo1ElwksXy6OoxNjQt4L-7" value="3" style="ellipse;whiteSpace=wrap;html=1;aspect=fixed;fontSize=20;" vertex="1" parent="1">
          <mxGeometry x="170" y="-60" width="80" height="80" as="geometry" />
        </mxCell>
        <mxCell id="Xo1ElwksXy6OoxNjQt4L-11" value="" style="endArrow=classic;html=1;rounded=0;fontSize=20;exitX=0;exitY=0;exitDx=0;exitDy=0;entryX=1;entryY=0;entryDx=0;entryDy=0;" edge="1" parent="1" source="Xo1ElwksXy6OoxNjQt4L-4" target="Xo1ElwksXy6OoxNjQt4L-4">
          <mxGeometry width="50" height="50" relative="1" as="geometry">
            <mxPoint x="180" y="230" as="sourcePoint" />
            <mxPoint x="230" y="180" as="targetPoint" />
            <Array as="points">
              <mxPoint x="-80" y="-110" />
              <mxPoint x="-40" y="-130" />
              <mxPoint y="-100" />
            </Array>
          </mxGeometry>
        </mxCell>
        <mxCell id="Xo1ElwksXy6OoxNjQt4L-12" value="d" style="text;html=1;align=center;verticalAlign=middle;resizable=0;points=[];autosize=1;strokeColor=none;fillColor=none;fontSize=20;" vertex="1" parent="1">
          <mxGeometry x="-35" y="-150" width="30" height="40" as="geometry" />
        </mxCell>
        <mxCell id="Xo1ElwksXy6OoxNjQt4L-14" value="." style="text;html=1;align=center;verticalAlign=middle;resizable=0;points=[];autosize=1;strokeColor=none;fillColor=none;fontSize=20;" vertex="1" parent="1">
          <mxGeometry x="55" y="-60" width="30" height="40" as="geometry" />
        </mxCell>
        <mxCell id="Xo1ElwksXy6OoxNjQt4L-15" value="" style="endArrow=classic;html=1;rounded=0;fontSize=20;exitX=0;exitY=0;exitDx=0;exitDy=0;entryX=1;entryY=0;entryDx=0;entryDy=0;" edge="1" parent="1" source="Xo1ElwksXy6OoxNjQt4L-7" target="Xo1ElwksXy6OoxNjQt4L-7">
          <mxGeometry width="50" height="50" relative="1" as="geometry">
            <mxPoint x="180" y="-60" as="sourcePoint" />
            <mxPoint x="230" y="-110" as="targetPoint" />
            <Array as="points">
              <mxPoint x="170" y="-110" />
              <mxPoint x="200" y="-130" />
              <mxPoint x="250" y="-100" />
            </Array>
          </mxGeometry>
        </mxCell>
        <mxCell id="Xo1ElwksXy6OoxNjQt4L-16" value="d" style="text;html=1;align=center;verticalAlign=middle;resizable=0;points=[];autosize=1;strokeColor=none;fillColor=none;fontSize=20;" vertex="1" parent="1">
          <mxGeometry x="240" y="-130" width="30" height="40" as="geometry" />
        </mxCell>
        <mxCell id="Xo1ElwksXy6OoxNjQt4L-18" value="e|E" style="text;html=1;align=center;verticalAlign=middle;resizable=0;points=[];autosize=1;strokeColor=none;fillColor=none;fontSize=20;" vertex="1" parent="1">
          <mxGeometry x="-45" y="30" width="50" height="40" as="geometry" />
        </mxCell>
        <mxCell id="Xo1ElwksXy6OoxNjQt4L-20" value="" style="endArrow=classic;html=1;rounded=0;fontSize=20;exitX=0.5;exitY=1;exitDx=0;exitDy=0;" edge="1" parent="1" source="Xo1ElwksXy6OoxNjQt4L-7">
          <mxGeometry width="50" height="50" relative="1" as="geometry">
            <mxPoint x="180" y="230" as="sourcePoint" />
            <mxPoint y="140" as="targetPoint" />
          </mxGeometry>
        </mxCell>
        <mxCell id="Xo1ElwksXy6OoxNjQt4L-21" value="e|E" style="text;html=1;align=center;verticalAlign=middle;resizable=0;points=[];autosize=1;strokeColor=none;fillColor=none;fontSize=20;" vertex="1" parent="1">
          <mxGeometry x="70" y="40" width="50" height="40" as="geometry" />
        </mxCell>
        <mxCell id="Xo1ElwksXy6OoxNjQt4L-24" value="d|+|-" style="text;html=1;align=center;verticalAlign=middle;resizable=0;points=[];autosize=1;strokeColor=none;fillColor=none;fontSize=20;" vertex="1" parent="1">
          <mxGeometry x="50" y="130" width="60" height="40" as="geometry" />
        </mxCell>
        <mxCell id="Xo1ElwksXy6OoxNjQt4L-28" value="" style="endArrow=classic;html=1;rounded=0;fontSize=20;exitX=0;exitY=1;exitDx=0;exitDy=0;entryX=1;entryY=1;entryDx=0;entryDy=0;" edge="1" parent="1" source="Xo1ElwksXy6OoxNjQt4L-6" target="Xo1ElwksXy6OoxNjQt4L-6">
          <mxGeometry width="50" height="50" relative="1" as="geometry">
            <mxPoint x="180" y="230" as="sourcePoint" />
            <mxPoint x="230" y="180" as="targetPoint" />
            <Array as="points">
              <mxPoint x="160" y="250" />
              <mxPoint x="210" y="260" />
              <mxPoint x="260" y="250" />
            </Array>
          </mxGeometry>
        </mxCell>
        <mxCell id="Xo1ElwksXy6OoxNjQt4L-29" value="d" style="text;html=1;align=center;verticalAlign=middle;resizable=0;points=[];autosize=1;strokeColor=none;fillColor=none;fontSize=20;" vertex="1" parent="1">
          <mxGeometry x="195" y="250" width="30" height="40" as="geometry" />
        </mxCell>
        <mxCell id="Xo1ElwksXy6OoxNjQt4L-30" value="5" style="ellipse;whiteSpace=wrap;html=1;aspect=fixed;fontSize=20;" vertex="1" parent="1">
          <mxGeometry x="180" y="130" width="60" height="60" as="geometry" />
        </mxCell>
      </root>
    </mxGraphModel>
  </diagram>
  <diagram id="bcetxxGQicYDvraRyejt" name="第 4 页">
    <mxGraphModel dx="1787" dy="1188" grid="0" gridSize="10" guides="1" tooltips="1" connect="1" arrows="1" fold="1" page="0" pageScale="1" pageWidth="827" pageHeight="1169" math="0" shadow="0">
      <root>
        <mxCell id="0" />
        <mxCell id="1" parent="0" />
        <mxCell id="3YYw3kOsQSr0ggWX_Wqm-2" style="edgeStyle=orthogonalEdgeStyle;rounded=0;orthogonalLoop=1;jettySize=auto;html=1;exitX=1;exitY=0.5;exitDx=0;exitDy=0;entryX=0;entryY=0.5;entryDx=0;entryDy=0;fontSize=20;" edge="1" parent="1" source="9lK2901QUH4uc7r1k5Ye-1" target="3YYw3kOsQSr0ggWX_Wqm-1">
          <mxGeometry relative="1" as="geometry" />
        </mxCell>
        <mxCell id="9lK2901QUH4uc7r1k5Ye-1" value="1" style="ellipse;whiteSpace=wrap;html=1;aspect=fixed;fontSize=20;" vertex="1" parent="1">
          <mxGeometry x="-241" y="34" width="80" height="80" as="geometry" />
        </mxCell>
        <mxCell id="XOJGSDxtZ1qwEnhOgSZO-3" style="edgeStyle=orthogonalEdgeStyle;rounded=0;orthogonalLoop=1;jettySize=auto;html=1;exitX=1;exitY=0.5;exitDx=0;exitDy=0;entryX=0;entryY=0.5;entryDx=0;entryDy=0;fontSize=20;" edge="1" parent="1" source="3YYw3kOsQSr0ggWX_Wqm-1" target="XOJGSDxtZ1qwEnhOgSZO-2">
          <mxGeometry relative="1" as="geometry" />
        </mxCell>
        <mxCell id="3YYw3kOsQSr0ggWX_Wqm-1" value="2" style="ellipse;whiteSpace=wrap;html=1;aspect=fixed;fontSize=20;" vertex="1" parent="1">
          <mxGeometry x="-90" y="34" width="80" height="80" as="geometry" />
        </mxCell>
        <mxCell id="XOJGSDxtZ1qwEnhOgSZO-1" value="L" style="text;html=1;align=center;verticalAlign=middle;resizable=0;points=[];autosize=1;strokeColor=none;fillColor=none;fontSize=20;" vertex="1" parent="1">
          <mxGeometry x="-145" y="38" width="29" height="36" as="geometry" />
        </mxCell>
        <mxCell id="XOJGSDxtZ1qwEnhOgSZO-2" value="" style="ellipse;whiteSpace=wrap;html=1;aspect=fixed;fontSize=20;" vertex="1" parent="1">
          <mxGeometry x="71" y="34" width="80" height="80" as="geometry" />
        </mxCell>
        <mxCell id="XOJGSDxtZ1qwEnhOgSZO-4" value="L | D" style="text;html=1;align=center;verticalAlign=middle;resizable=0;points=[];autosize=1;strokeColor=none;fillColor=none;fontSize=20;" vertex="1" parent="1">
          <mxGeometry x="-6" y="38" width="59" height="36" as="geometry" />
        </mxCell>
        <mxCell id="XOJGSDxtZ1qwEnhOgSZO-5" value="3" style="ellipse;whiteSpace=wrap;html=1;aspect=fixed;fontSize=20;" vertex="1" parent="1">
          <mxGeometry x="76.5" y="39.5" width="69" height="69" as="geometry" />
        </mxCell>
        <mxCell id="XOJGSDxtZ1qwEnhOgSZO-6" value="" style="endArrow=classic;html=1;rounded=0;fontSize=20;entryX=1;entryY=0;entryDx=0;entryDy=0;" edge="1" parent="1" target="XOJGSDxtZ1qwEnhOgSZO-2">
          <mxGeometry width="50" height="50" relative="1" as="geometry">
            <mxPoint x="77" y="47" as="sourcePoint" />
            <mxPoint x="126.5" y="3" as="targetPoint" />
            <Array as="points">
              <mxPoint x="68" y="2" />
              <mxPoint x="99" y="-28" />
              <mxPoint x="144" y="-1" />
            </Array>
          </mxGeometry>
        </mxCell>
        <mxCell id="XOJGSDxtZ1qwEnhOgSZO-7" value="L | D" style="text;html=1;align=center;verticalAlign=middle;resizable=0;points=[];autosize=1;strokeColor=none;fillColor=none;fontSize=20;" vertex="1" parent="1">
          <mxGeometry x="97" y="-51" width="59" height="36" as="geometry" />
        </mxCell>
      </root>
    </mxGraphModel>
  </diagram>
</mxfile>
